<svg id="svg" version="1.1" xmlns="http://www.w3.org/2000/svg" xmlns:xlink="http://www.w3.org/1999/xlink" width="400" height="400" viewBox="0, 0, 400,400"><g id="svgg"><path id="path0" d="M130.800 47.150 C 116.433 52.338,114.181 73.337,127.273 80.035 C 128.083 80.449,128.847 80.953,128.971 81.154 C 129.933 82.710,133.010 82.801,188.600 82.902 L 242.200 83.000 242.328 83.900 C 242.452 84.776,240.482 88.571,236.254 95.600 C 235.658 96.590,234.895 97.940,234.558 98.600 C 234.221 99.260,233.552 100.456,233.073 101.259 C 232.593 102.061,231.300 104.282,230.200 106.193 C 229.100 108.105,227.708 110.508,227.106 111.534 C 226.504 112.560,225.730 113.940,225.385 114.600 C 224.386 116.510,223.496 118.041,222.013 120.400 C 221.252 121.610,220.302 123.230,219.901 124.000 C 219.500 124.770,218.736 126.120,218.202 127.000 C 217.669 127.880,216.865 129.275,216.416 130.100 C 214.766 133.132,213.924 134.634,213.072 136.064 C 209.953 141.301,208.251 144.217,207.390 145.800 C 206.216 147.960,200.141 158.535,198.126 161.928 C 197.645 162.738,196.755 164.300,196.147 165.400 C 194.589 168.221,192.182 172.382,189.111 177.563 C 188.512 178.573,187.733 179.940,187.380 180.600 C 186.317 182.587,180.750 192.264,178.114 196.707 C 177.627 197.528,176.728 199.100,176.117 200.200 C 174.860 202.459,174.200 203.614,172.888 205.848 C 172.386 206.701,171.562 208.120,171.056 209.000 C 170.550 209.880,169.715 211.320,169.200 212.200 C 168.685 213.080,167.890 214.455,167.432 215.256 C 166.974 216.056,165.700 218.286,164.600 220.211 C 161.845 225.032,161.102 226.320,159.876 228.400 C 159.293 229.390,157.237 232.961,155.308 236.335 C 153.379 239.709,151.403 243.129,150.917 243.935 C 150.431 244.741,149.655 246.120,149.193 247.000 C 147.925 249.410,147.135 250.779,145.613 253.200 C 144.852 254.410,143.907 256.030,143.512 256.800 C 143.118 257.570,142.359 258.920,141.825 259.800 C 140.871 261.375,140.148 262.640,138.398 265.800 C 137.911 266.680,137.127 268.052,136.656 268.848 C 136.185 269.644,134.900 271.858,133.800 273.767 C 132.700 275.677,131.402 277.905,130.916 278.720 C 130.430 279.534,129.620 280.962,129.116 281.894 C 128.350 283.311,124.174 290.577,120.000 297.755 C 119.450 298.701,118.190 300.877,117.200 302.590 C 116.210 304.304,114.909 306.537,114.310 307.553 C 113.710 308.569,112.939 309.940,112.596 310.600 C 112.253 311.260,111.573 312.456,111.086 313.259 C 109.532 315.818,106.270 321.569,104.001 325.748 L 101.802 329.800 101.801 334.600 C 101.799 342.711,105.511 348.573,112.509 351.510 L 115.582 352.800 197.691 352.787 L 279.800 352.775 281.800 351.791 C 282.900 351.250,284.019 350.806,284.287 350.804 C 285.286 350.796,290.604 344.989,291.800 342.598 C 293.586 339.028,293.611 330.601,291.845 327.200 C 289.448 322.584,286.200 319.604,281.400 317.616 L 279.000 316.622 216.600 316.515 C 182.280 316.456,153.795 316.313,153.300 316.196 C 151.761 315.835,152.020 315.226,158.400 304.234 C 158.950 303.287,161.380 299.063,163.800 294.848 C 166.220 290.633,168.560 286.573,169.000 285.826 C 169.440 285.079,171.150 282.097,172.800 279.200 C 174.450 276.303,176.199 273.273,176.686 272.466 C 177.173 271.660,177.859 270.460,178.210 269.800 C 178.561 269.140,179.333 267.773,179.924 266.761 C 180.516 265.750,182.260 262.722,183.800 260.033 C 185.340 257.344,186.960 254.533,187.400 253.787 C 187.840 253.040,190.270 248.816,192.800 244.400 C 195.330 239.984,197.760 235.756,198.200 235.006 C 198.640 234.255,200.620 230.817,202.600 227.365 C 204.580 223.913,206.690 220.258,207.289 219.244 C 207.888 218.230,208.650 216.827,208.983 216.127 C 209.316 215.427,209.765 214.745,209.983 214.611 C 210.200 214.477,210.738 213.609,211.179 212.683 C 211.619 211.758,212.154 210.730,212.367 210.400 C 212.581 210.070,213.420 208.630,214.232 207.200 C 215.044 205.770,216.075 203.970,216.523 203.200 C 217.696 201.180,218.738 199.369,221.000 195.414 C 222.100 193.491,223.398 191.261,223.885 190.459 C 224.372 189.656,225.003 188.550,225.287 188.000 C 225.767 187.069,228.790 181.750,229.606 180.400 C 229.933 179.858,232.459 175.478,234.641 171.668 C 235.103 170.861,235.953 169.390,236.530 168.400 C 237.106 167.410,239.158 163.844,241.089 160.477 C 243.020 157.109,245.050 153.578,245.600 152.631 C 246.150 151.684,247.770 148.895,249.200 146.434 C 250.630 143.973,252.066 141.474,252.391 140.880 C 252.716 140.286,253.376 139.170,253.858 138.400 C 254.340 137.630,255.244 136.067,255.867 134.928 C 256.490 133.788,258.278 130.638,259.839 127.928 C 261.401 125.217,264.980 118.950,267.793 114.000 C 270.606 109.050,273.214 104.550,273.588 104.000 C 273.962 103.450,276.143 99.714,278.434 95.698 C 283.263 87.233,284.503 85.065,285.486 83.367 C 285.879 82.688,286.553 81.428,286.984 80.567 C 287.416 79.705,287.982 78.730,288.244 78.400 C 288.506 78.070,289.681 76.000,290.857 73.800 L 292.994 69.800 292.997 64.600 C 293.002 55.477,288.113 48.942,279.847 47.026 C 275.662 46.055,133.504 46.173,130.800 47.150 " stroke="none" fill="#33265d" fill-rule="evenodd"></path><path id="path1" d="M89.542 47.008 C 71.211 52.030,73.260 79.185,92.200 82.236 C 97.305 83.059,135.114 82.902,131.507 82.073 C 130.246 81.783,129.109 81.376,128.980 81.167 C 128.851 80.959,128.083 80.449,127.273 80.035 C 122.627 77.658,119.029 71.618,118.545 65.383 C 117.951 57.745,123.766 49.094,130.758 47.211 C 131.661 46.968,132.400 46.686,132.400 46.585 C 132.400 46.110,91.337 46.516,89.542 47.008 M200.935 83.496 C 200.507 84.738,199.230 87.364,198.454 88.600 C 198.039 89.260,196.951 91.150,196.034 92.800 C 195.118 94.450,194.200 96.070,193.994 96.400 C 193.788 96.730,192.760 98.504,191.710 100.341 C 190.659 102.179,189.401 104.339,188.914 105.141 C 188.427 105.944,187.736 107.140,187.379 107.800 C 187.022 108.460,186.251 109.835,185.665 110.855 C 185.079 111.876,183.340 114.910,181.800 117.598 C 180.260 120.286,178.640 123.088,178.200 123.825 C 177.760 124.561,176.715 126.387,175.878 127.882 C 175.041 129.377,174.182 130.870,173.970 131.200 C 173.758 131.530,173.320 132.373,172.998 133.073 C 172.676 133.773,172.235 134.455,172.017 134.589 C 171.800 134.723,171.259 135.591,170.815 136.517 C 170.371 137.442,169.615 138.830,169.136 139.600 C 168.657 140.370,167.891 141.661,167.433 142.468 C 164.989 146.776,161.051 153.629,160.094 155.240 C 159.045 157.005,151.277 170.521,149.200 174.195 C 148.650 175.168,146.580 178.769,144.600 182.197 C 139.704 190.674,139.423 191.161,138.344 193.062 C 137.105 195.243,130.481 206.765,129.200 208.965 C 128.650 209.911,126.580 213.506,124.600 216.956 C 122.620 220.405,120.640 223.838,120.200 224.585 C 119.760 225.333,117.690 228.935,115.600 232.590 C 113.510 236.246,111.440 239.840,111.000 240.577 C 110.560 241.314,109.341 243.421,108.290 245.259 C 107.240 247.096,106.215 248.870,106.012 249.200 C 105.810 249.530,104.959 251.033,104.122 252.539 C 103.285 254.046,102.240 255.881,101.800 256.618 C 101.360 257.354,99.740 260.147,98.200 262.823 C 96.660 265.499,94.918 268.524,94.328 269.545 C 93.738 270.565,93.062 271.760,92.825 272.200 C 92.588 272.640,91.900 273.834,91.297 274.853 C 90.694 275.872,88.517 279.652,86.459 283.253 C 84.402 286.854,80.673 293.310,78.172 297.600 C 75.672 301.890,73.252 306.120,72.796 307.000 C 72.339 307.880,71.569 309.252,71.083 310.048 C 70.597 310.844,69.338 313.004,68.284 314.848 C 67.231 316.692,66.205 318.470,66.006 318.800 C 60.357 328.147,59.261 331.544,60.004 337.400 C 61.578 349.811,76.541 357.048,87.040 350.476 C 90.933 348.038,92.429 346.328,95.627 340.655 C 98.639 335.311,100.079 333.077,101.280 331.884 C 101.676 331.491,102.009 330.771,102.021 330.284 C 102.046 329.243,106.788 320.336,111.086 313.259 C 111.573 312.456,112.253 311.260,112.596 310.600 C 112.939 309.940,113.710 308.569,114.310 307.553 C 114.909 306.537,116.210 304.304,117.200 302.590 C 118.190 300.877,119.450 298.701,120.000 297.755 C 124.174 290.577,128.350 283.311,129.116 281.894 C 129.620 280.962,130.430 279.534,130.916 278.720 C 131.402 277.905,132.700 275.677,133.800 273.767 C 134.900 271.858,136.185 269.644,136.656 268.848 C 137.127 268.052,137.911 266.680,138.398 265.800 C 140.148 262.640,140.871 261.375,141.825 259.800 C 142.359 258.920,143.118 257.570,143.512 256.800 C 143.907 256.030,144.852 254.410,145.613 253.200 C 147.135 250.779,147.925 249.410,149.193 247.000 C 149.655 246.120,150.431 244.741,150.917 243.935 C 151.403 243.129,153.379 239.709,155.308 236.335 C 157.237 232.961,159.293 229.390,159.876 228.400 C 161.102 226.320,161.845 225.032,164.600 220.211 C 165.700 218.286,166.974 216.056,167.432 215.256 C 167.890 214.455,168.685 213.080,169.200 212.200 C 169.715 211.320,170.550 209.880,171.056 209.000 C 171.562 208.120,172.386 206.701,172.888 205.848 C 174.200 203.614,174.860 202.459,176.117 200.200 C 176.728 199.100,177.627 197.528,178.114 196.707 C 180.750 192.264,186.317 182.587,187.380 180.600 C 187.733 179.940,188.512 178.573,189.111 177.563 C 192.182 172.382,194.589 168.221,196.147 165.400 C 196.755 164.300,197.645 162.738,198.126 161.928 C 200.141 158.535,206.216 147.960,207.390 145.800 C 208.251 144.217,209.953 141.301,213.072 136.064 C 213.924 134.634,214.766 133.132,216.416 130.100 C 216.865 129.275,217.669 127.880,218.202 127.000 C 218.736 126.120,219.500 124.770,219.901 124.000 C 220.302 123.230,221.252 121.610,222.013 120.400 C 223.496 118.041,224.386 116.510,225.385 114.600 C 225.730 113.940,226.504 112.560,227.106 111.534 C 227.708 110.508,229.100 108.105,230.200 106.193 C 231.300 104.282,232.593 102.061,233.073 101.259 C 233.552 100.456,234.221 99.260,234.558 98.600 C 234.895 97.940,235.658 96.590,236.254 95.600 C 240.482 88.571,242.452 84.776,242.328 83.900 L 242.200 83.000 221.689 82.896 C 202.419 82.799,201.163 82.835,200.935 83.496 " stroke="none" fill="#f97306" fill-rule="evenodd"></path><path id="path2" d="M311.800 47.139 C 306.993 48.463,302.186 52.611,299.932 57.380 C 299.719 57.831,299.062 59.026,298.472 60.035 C 297.882 61.045,297.060 62.485,296.644 63.235 C 295.733 64.879,294.134 66.843,293.760 66.779 C 293.280 66.695,292.812 67.769,292.806 68.967 C 292.801 69.997,289.507 76.807,288.244 78.400 C 287.982 78.730,287.416 79.705,286.984 80.567 C 286.553 81.428,285.879 82.688,285.486 83.367 C 284.503 85.065,283.263 87.233,278.434 95.698 C 276.143 99.714,273.962 103.450,273.588 104.000 C 273.214 104.550,270.606 109.050,267.793 114.000 C 264.980 118.950,261.401 125.217,259.839 127.928 C 258.278 130.638,256.490 133.788,255.867 134.928 C 255.244 136.067,254.340 137.630,253.858 138.400 C 253.376 139.170,252.716 140.286,252.391 140.880 C 252.066 141.474,250.630 143.973,249.200 146.434 C 247.770 148.895,246.150 151.684,245.600 152.631 C 245.050 153.578,243.020 157.109,241.089 160.477 C 239.158 163.844,237.106 167.410,236.530 168.400 C 235.953 169.390,235.103 170.861,234.641 171.668 C 232.459 175.478,229.933 179.858,229.606 180.400 C 228.790 181.750,225.767 187.069,225.287 188.000 C 225.003 188.550,224.372 189.656,223.885 190.459 C 223.398 191.261,222.100 193.491,221.000 195.414 C 218.738 199.369,217.696 201.180,216.523 203.200 C 216.075 203.970,215.044 205.770,214.232 207.200 C 213.420 208.630,212.581 210.070,212.367 210.400 C 212.154 210.730,211.619 211.758,211.179 212.683 C 210.738 213.609,210.200 214.477,209.983 214.611 C 209.765 214.745,209.316 215.427,208.983 216.127 C 208.650 216.827,207.888 218.230,207.289 219.244 C 206.690 220.258,204.580 223.913,202.600 227.365 C 200.620 230.817,198.640 234.255,198.200 235.006 C 197.760 235.756,195.330 239.984,192.800 244.400 C 190.270 248.816,187.840 253.040,187.400 253.787 C 186.960 254.533,185.340 257.344,183.800 260.033 C 182.260 262.722,180.516 265.750,179.924 266.761 C 179.333 267.773,178.561 269.140,178.210 269.800 C 177.859 270.460,177.173 271.660,176.686 272.466 C 176.199 273.273,174.450 276.303,172.800 279.200 C 171.150 282.097,169.440 285.079,169.000 285.826 C 168.560 286.573,166.220 290.633,163.800 294.848 C 161.380 299.063,158.950 303.287,158.400 304.234 C 152.210 314.899,151.848 315.703,153.033 316.157 C 154.036 316.542,195.066 316.430,194.457 316.044 C 193.804 315.630,194.104 314.405,195.349 312.400 C 195.827 311.630,196.516 310.460,196.880 309.800 C 197.471 308.729,201.592 301.563,203.856 297.672 C 204.327 296.862,205.061 295.570,205.487 294.800 C 205.913 294.030,207.581 291.150,209.192 288.400 C 210.804 285.650,212.466 282.770,212.886 282.000 C 213.306 281.230,214.178 279.700,214.825 278.600 C 215.472 277.500,216.177 276.240,216.392 275.800 C 216.606 275.360,217.410 274.010,218.177 272.800 C 218.944 271.590,219.847 270.060,220.182 269.400 C 220.518 268.740,221.330 267.300,221.987 266.200 C 222.643 265.100,223.463 263.660,223.808 263.000 C 224.153 262.340,224.923 260.963,225.518 259.939 C 227.986 255.695,230.254 251.835,231.086 250.462 C 231.573 249.658,232.266 248.370,232.626 247.600 C 232.985 246.830,233.510 245.930,233.791 245.600 C 234.072 245.270,234.935 243.830,235.708 242.400 C 236.481 240.970,237.988 238.310,239.057 236.488 C 240.125 234.666,241.405 232.461,241.900 231.588 C 242.852 229.908,243.400 228.952,246.600 223.384 C 247.700 221.470,249.230 218.777,250.000 217.400 C 250.770 216.022,251.615 214.643,251.877 214.334 C 252.139 214.026,252.546 213.330,252.780 212.787 C 253.015 212.244,253.700 210.963,254.303 209.939 C 257.270 204.906,259.387 201.267,260.085 200.000 C 260.509 199.230,261.287 197.880,261.813 197.000 C 262.340 196.120,263.272 194.500,263.883 193.400 C 264.495 192.300,265.267 190.913,265.598 190.318 C 265.929 189.723,267.081 187.743,268.157 185.918 C 269.233 184.093,270.459 181.970,270.881 181.200 C 271.304 180.430,272.133 178.971,272.725 177.958 C 273.316 176.945,275.420 173.294,277.400 169.844 C 279.380 166.395,281.360 162.961,281.800 162.212 C 282.240 161.464,284.310 157.868,286.400 154.221 C 288.490 150.575,290.560 146.982,291.000 146.238 C 291.440 145.494,293.060 142.684,294.600 139.992 C 296.140 137.301,297.891 134.267,298.490 133.250 C 299.090 132.232,299.861 130.860,300.204 130.200 C 300.547 129.540,301.227 128.337,301.714 127.526 C 302.201 126.715,304.310 123.058,306.400 119.399 C 308.490 115.740,310.545 112.174,310.967 111.473 C 311.389 110.773,312.109 109.545,312.567 108.744 C 313.025 107.944,314.300 105.714,315.400 103.789 C 318.927 97.617,319.506 96.611,324.600 87.809 C 326.580 84.388,328.612 80.826,329.116 79.894 C 329.620 78.962,330.463 77.480,330.990 76.600 C 334.695 70.417,334.600 70.732,334.600 64.600 C 334.600 58.479,334.452 57.958,331.473 53.562 C 327.649 47.920,319.101 45.129,311.800 47.139 M278.000 316.789 C 284.064 317.815,288.833 321.401,291.845 327.200 C 293.611 330.601,293.586 339.028,291.800 342.598 C 290.604 344.989,285.286 350.796,284.287 350.804 C 284.019 350.806,282.900 351.253,281.800 351.799 L 279.800 352.790 301.000 352.695 L 322.200 352.600 324.580 351.434 C 334.790 346.432,338.098 333.153,331.452 323.845 C 329.521 321.140,326.528 318.971,322.800 317.574 L 320.200 316.600 298.200 316.542 C 286.100 316.511,277.010 316.622,278.000 316.789 " stroke="none" fill="#05e4b4" fill-rule="evenodd"></path><path id="path3" d="M0.000 200.000 L 0.000 400.000 200.000 400.000 L 400.000 400.000 400.000 200.000 L 400.000 0.000 200.000 0.000 L 0.000 0.000 0.000 200.000 M279.847 47.026 C 287.203 48.731,292.589 55.114,293.051 62.675 C 293.379 68.028,293.834 68.128,296.508 63.433 C 296.998 62.572,297.882 61.042,298.472 60.033 C 299.062 59.025,299.719 57.831,299.932 57.380 C 306.811 42.822,326.091 42.720,333.659 57.200 C 334.516 58.840,334.600 59.498,334.600 64.600 C 334.600 70.732,334.695 70.417,330.990 76.600 C 330.463 77.480,329.620 78.962,329.116 79.894 C 328.612 80.826,326.580 84.388,324.600 87.809 C 319.506 96.611,318.927 97.617,315.400 103.789 C 314.300 105.714,313.025 107.944,312.567 108.744 C 312.109 109.545,311.389 110.773,310.967 111.473 C 310.545 112.174,308.490 115.740,306.400 119.399 C 304.310 123.058,302.201 126.715,301.714 127.526 C 301.227 128.337,300.547 129.540,300.204 130.200 C 299.861 130.860,299.090 132.232,298.490 133.250 C 297.891 134.267,296.140 137.301,294.600 139.992 C 293.060 142.684,291.440 145.494,291.000 146.238 C 290.560 146.982,288.490 150.575,286.400 154.221 C 284.310 157.868,282.240 161.464,281.800 162.212 C 281.360 162.961,279.380 166.395,277.400 169.844 C 275.420 173.294,273.316 176.945,272.725 177.958 C 272.133 178.971,271.304 180.430,270.881 181.200 C 270.459 181.970,269.233 184.093,268.157 185.918 C 267.081 187.743,265.929 189.723,265.598 190.318 C 265.267 190.913,264.495 192.300,263.883 193.400 C 263.272 194.500,262.340 196.120,261.813 197.000 C 261.287 197.880,260.509 199.230,260.085 200.000 C 259.387 201.267,257.270 204.906,254.303 209.939 C 253.700 210.963,253.015 212.244,252.780 212.787 C 252.546 213.330,252.139 214.026,251.877 214.334 C 251.615 214.643,250.770 216.022,250.000 217.400 C 249.230 218.777,247.700 221.470,246.600 223.384 C 243.400 228.952,242.852 229.908,241.900 231.588 C 241.405 232.461,240.125 234.666,239.057 236.488 C 237.988 238.310,236.481 240.970,235.708 242.400 C 234.935 243.830,234.072 245.270,233.791 245.600 C 233.510 245.930,232.985 246.830,232.626 247.600 C 232.266 248.370,231.573 249.658,231.086 250.462 C 230.254 251.835,227.986 255.695,225.518 259.939 C 224.923 260.963,224.153 262.340,223.808 263.000 C 223.463 263.660,222.643 265.100,221.987 266.200 C 221.330 267.300,220.518 268.740,220.182 269.400 C 219.847 270.060,218.944 271.590,218.177 272.800 C 217.410 274.010,216.606 275.360,216.392 275.800 C 216.177 276.240,215.472 277.500,214.825 278.600 C 214.178 279.700,213.306 281.230,212.886 282.000 C 212.466 282.770,210.804 285.650,209.192 288.400 C 207.581 291.150,205.913 294.030,205.487 294.800 C 205.061 295.570,204.327 296.862,203.856 297.672 C 201.592 301.563,197.471 308.729,196.880 309.800 C 196.516 310.460,195.821 311.630,195.334 312.400 C 193.895 314.680,193.740 315.922,194.861 316.187 C 195.377 316.309,223.790 316.452,258.000 316.504 L 320.200 316.600 322.800 317.574 C 330.926 320.619,334.600 325.982,334.600 334.800 C 334.600 342.725,331.352 348.116,324.580 351.434 L 322.200 352.600 218.898 352.703 L 115.596 352.806 112.517 351.513 C 106.085 348.813,102.144 343.094,101.711 335.830 C 101.585 333.723,101.347 332.000,101.181 332.000 C 100.766 332.000,98.628 335.332,95.627 340.655 C 92.429 346.328,90.933 348.038,87.040 350.476 C 76.541 357.048,61.578 349.811,60.004 337.400 C 59.261 331.544,60.357 328.147,66.006 318.800 C 66.205 318.470,67.231 316.692,68.284 314.848 C 69.338 313.004,70.597 310.844,71.083 310.048 C 71.569 309.252,72.339 307.880,72.796 307.000 C 73.252 306.120,75.672 301.890,78.172 297.600 C 80.673 293.310,84.402 286.854,86.459 283.253 C 88.517 279.652,90.694 275.872,91.297 274.853 C 91.900 273.834,92.588 272.640,92.825 272.200 C 93.062 271.760,93.738 270.565,94.328 269.545 C 94.918 268.524,96.660 265.499,98.200 262.823 C 99.740 260.147,101.360 257.354,101.800 256.618 C 102.240 255.881,103.285 254.046,104.122 252.539 C 104.959 251.033,105.810 249.530,106.012 249.200 C 106.215 248.870,107.240 247.096,108.290 245.259 C 109.341 243.421,110.560 241.314,111.000 240.577 C 111.440 239.840,113.510 236.246,115.600 232.590 C 117.690 228.935,119.760 225.333,120.200 224.585 C 120.640 223.838,122.620 220.405,124.600 216.956 C 126.580 213.506,128.650 209.911,129.200 208.965 C 130.481 206.765,137.105 195.243,138.344 193.062 C 139.423 191.161,139.704 190.674,144.600 182.197 C 146.580 178.769,148.650 175.168,149.200 174.195 C 151.277 170.521,159.045 157.005,160.094 155.240 C 161.051 153.629,164.989 146.776,167.433 142.468 C 167.891 141.661,168.657 140.370,169.136 139.600 C 169.615 138.830,170.371 137.442,170.815 136.517 C 171.259 135.591,171.800 134.723,172.017 134.589 C 172.235 134.455,172.676 133.773,172.998 133.073 C 173.320 132.373,173.758 131.530,173.970 131.200 C 174.182 130.870,175.041 129.377,175.878 127.882 C 176.715 126.387,177.760 124.561,178.200 123.825 C 178.640 123.088,180.260 120.286,181.800 117.598 C 183.340 114.910,185.079 111.876,185.665 110.855 C 186.251 109.835,187.022 108.460,187.379 107.800 C 187.736 107.140,188.427 105.944,188.914 105.141 C 189.401 104.339,190.659 102.179,191.710 100.341 C 192.760 98.504,193.788 96.730,193.994 96.400 C 194.200 96.070,195.118 94.450,196.034 92.800 C 196.951 91.150,198.039 89.260,198.454 88.600 C 199.843 86.388,200.865 83.947,200.644 83.371 C 200.418 82.782,198.921 82.772,114.600 82.789 C 89.727 82.794,87.639 82.458,82.455 77.610 C 72.380 68.189,76.455 50.594,89.542 47.008 C 92.645 46.158,276.179 46.175,279.847 47.026 " stroke="none" fill="#fbfbfb" fill-rule="evenodd"></path></g></svg>