<svg xmlns="http://www.w3.org/2000/svg" width="220" height="220"><path d="M48.5 25.945c-5.839 2.39-8.169 11.449-4.1 15.944 3.229 3.568 8.066 4.1 37.35 4.105 15.537.003 28.25.249 28.25.546 0 .296-17.325 30.648-38.5 67.447-42.203 73.343-41.294 71.373-35.577 77.09 5.418 5.418 12.32 3.543 17.148-4.659l2.895-4.918.017 3.327c.012 2.329.894 4.204 2.94 6.25L61.846 194h46.855c51.364 0 49.736.187 52.304-6.012.996-2.404 1.025-3.945.131-6.929-2.115-7.059-1.795-7.002-41.541-7.296l-35.514-.263 38.586-67c33.315-57.848 38.569-67.52 38.464-70.806-.156-4.912-1.493-7.313-5.111-9.184-2.499-1.292-10.334-1.501-54.22-1.447-28.215.035-52.2.432-53.3.882" fill="undefined" fill-rule="evenodd"/></svg>